<?xml version="1.0" encoding="UTF-8"?>
<svg width="45px" height="45px" viewBox="0 0 45 45" version="1.1" xmlns="http://www.w3.org/2000/svg" xmlns:xlink="http://www.w3.org/1999/xlink">
    <!-- Generator: Sketch 46.2 (44496) - http://www.bohemiancoding.com/sketch -->
    <title>back-team-icon</title>
    <desc>Created with Sketch.</desc>
    <defs>
        <rect id="path-1" x="0" y="0" width="311" height="418" rx="6"></rect>
    </defs>
    <g id="Full-webdesigns" stroke="none" stroke-width="1" fill="none" fill-rule="evenodd">
        <g id="About-us-V4" transform="translate(-1078.000000, -2497.000000)">
            <path d="M0,1195.48409 C92.0042654,1208.81672 261.556349,1215.48303 508.65625,1215.48303 C652.239745,1215.48303 817.212557,1182.10832 1003.57469,1175.35572 C1127.8161,1170.85398 1273.29121,1177.56344 1440,1195.48409 L1440,2908 L0,2908 L0,1195.48409 Z" id="bg-meeting-the-team" fill="#F8F8F8"></path>
            <g id="meeting-the-team" transform="translate(185.000000, 1291.000000)">
                <g id="Meeting-the-team">
                    <g id="row-2" transform="translate(0.000000, 871.000000)">
                        <g id="chris" transform="translate(760.000000, 0.000000)">
                            <g id="image-mask">
                                <mask id="mask-2" fill="white">
                                    <use xlink:href="#path-1"></use>
                                </mask>
                                <use id="Mask" fill="#33B2C1" xlink:href="#path-1"></use>
                            </g>
                            <g id="gamepad-controller" transform="translate(133.000000, 335.000000)">
                                <circle id="Oval-5" fill="#FFFFFF" cx="22.5" cy="22.5" r="22.5"></circle>
                                <path d="M29.0175063,12.0807371 L19.9777825,14.8584847 C18.881257,15.1742772 17.9952888,16.3199192 17.9952888,17.4216161 L17.9952888,27.0026992 C17.9952888,27.0026992 17.3402216,26.5601809 15.8815782,26.7676433 C13.7363349,27.071172 12,28.7237172 12,30.455977 C12,32.1892588 13.7363349,33.2541643 15.8815782,32.9475696 C18.0227528,32.6440409 19.5963381,31.0425948 19.5963381,29.3062471 L19.5963381,21.1263015 C19.5963381,20.3557269 20.5148563,20.0286926 20.5148563,20.0286926 L28.5089138,17.5095065 C28.5089138,17.5095065 29.394882,17.2141537 29.394882,18.0368493 L29.394882,24.6081949 C29.394882,24.6081949 28.5801167,24.1370611 27.1184218,24.31182 C24.97623,24.5754914 23.2398951,26.1922673 23.2398951,27.9255491 C23.2398951,29.6578089 24.97623,30.7554178 27.1184218,30.4958343 C29.2636651,30.2321629 31,28.6153871 31,26.8831273 L31,13.5053803 C31,12.4036835 30.1140318,11.7649446 29.0175063,12.0807371 Z" id="icon" fill="#33B2C1"></path>
                            </g>
                        </g>
                    </g>
                </g>
            </g>
        </g>
    </g>
</svg>