<?xml version="1.0" encoding="UTF-8"?>
<svg width="45px" height="45px" viewBox="0 0 45 45" version="1.1" xmlns="http://www.w3.org/2000/svg" xmlns:xlink="http://www.w3.org/1999/xlink">
    <!-- Generator: Sketch 46.2 (44496) - http://www.bohemiancoding.com/sketch -->
    <title>front-team-icon</title>
    <desc>Created with Sketch.</desc>
    <defs></defs>
    <g id="Full-webdesigns" stroke="none" stroke-width="1" fill="none" fill-rule="evenodd">
        <g id="About-us-V4" transform="translate(-1198.000000, -1696.000000)">
            <path d="M0,1195.48409 C92.0042654,1208.81672 261.556349,1215.48303 508.65625,1215.48303 C652.239745,1215.48303 817.212557,1182.10832 1003.57469,1175.35572 C1127.8161,1170.85398 1273.29121,1177.56344 1440,1195.48409 L1440,2908 L0,2908 L0,1195.48409 Z" id="bg-meeting-the-team" fill="#F8F8F8"></path>
            <g id="meeting-the-team" transform="translate(185.000000, 1291.000000)">
                <g id="Meeting-the-team">
                    <g id="row-1" transform="translate(0.000000, 392.000000)">
                        <g id="chris" transform="translate(760.000000, 13.000000)">
                            <g id="gamepad-controller" transform="translate(253.000000, 0.000000)">
                                <circle id="Oval-5" fill="#40C9D2" cx="22.5" cy="22.5" r="22.5"></circle>
                                <path d="M32.089748,17.7143428 C29.0299586,12.6868518 24.4224599,16.1833684 24.4224599,16.1833684 C24.1233909,16.4090198 23.5727584,16.5941834 23.1975725,16.5963428 L21.9640476,16.5963428 C21.5883219,16.5985021 21.0382292,16.4111791 20.7407797,16.1855277 C20.7407797,16.1855277 16.1311216,12.6890111 13.0713322,17.7143428 C10.0137021,22.7391345 11.2450676,28.2092909 11.2450676,28.2092909 C11.4620816,29.5486235 12.1730454,30.4425917 13.5161569,30.3308456 C14.8554896,30.2190996 17.7630453,26.722583 17.7630453,26.722583 C18.0038121,26.4359302 18.5053195,26.1994821 18.8788859,26.1994821 L26.2805748,26.1978626 C26.6536014,26.1978626 27.1556487,26.4337709 27.3958756,26.722583 C27.3958756,26.722583 30.3039712,30.2169403 31.6449233,30.3308456 C32.9864153,30.4425917 33.6989986,29.5464642 33.9138533,28.2092909 C33.9138533,28.2092909 35.1473781,22.7369752 32.089748,17.7143428 Z M19.8003857,21.8030592 L18.2121887,21.8030592 L18.2121887,23.3340336 C18.2121887,23.3340336 17.8769507,23.589376 17.3560091,23.5828979 C16.8372269,23.5742606 16.603478,23.3021833 16.603478,23.3021833 L16.603478,21.8052186 L15.1043539,21.8052186 C15.1043539,21.8052186 14.916491,21.613037 14.8679058,21.1072109 C14.8171612,20.6030042 15.0746629,20.1938087 15.0746629,20.1938087 L16.6601607,20.1938087 L16.6601607,18.6083109 C16.6601607,18.6083109 16.9873012,18.4334041 17.4574982,18.4458203 C17.9276952,18.4609357 18.2715706,18.6380018 18.2715706,18.6380018 L18.2650926,20.1938087 L19.7620573,20.1938087 C19.7620573,20.1938087 20.026037,20.5295865 20.0470906,20.9360829 C20.0681442,21.3431191 19.8003857,21.8030592 19.8003857,21.8030592 Z M27.0773725,23.5467289 C26.3815241,23.5467289 25.822794,22.9858395 25.822794,22.2899911 C25.822794,21.5963021 26.3815241,21.0354127 27.0773725,21.0354127 C27.7689022,21.0354127 28.3341103,21.5963021 28.3341103,22.2899911 C28.3341103,22.9858395 27.7689022,23.5467289 27.0773725,23.5467289 Z M27.0773725,20.0907 C26.3815241,20.0907 25.822794,19.5298106 25.822794,18.8361216 C25.822794,18.1402732 26.3815241,17.5793838 27.0773725,17.5793838 C27.7689022,17.5793838 28.3341103,18.1402732 28.3341103,18.8361216 C28.3341103,19.5298106 27.7689022,20.0907 27.0773725,20.0907 Z M30.2046414,21.9466556 C29.5109523,21.9466556 28.9500629,21.3852263 28.9500629,20.6893779 C28.9500629,19.9956889 29.5109523,19.4347995 30.2046414,19.4347995 C30.8961711,19.4347995 31.4613792,19.9956889 31.4613792,20.6893779 C31.4613792,21.3852263 30.8961711,21.9466556 30.2046414,21.9466556 Z" id="Fill-1" fill="#FFFFFF"></path>
                            </g>
                        </g>
                    </g>
                </g>
            </g>
        </g>
    </g>
</svg>