<?xml version="1.0" encoding="UTF-8"?>
<svg width="58px" height="49px" viewBox="0 0 58 49" version="1.1" xmlns="http://www.w3.org/2000/svg" xmlns:xlink="http://www.w3.org/1999/xlink">
    <!-- Generator: Sketch 46.2 (44496) - http://www.bohemiancoding.com/sketch -->
    <title>icon-cereal</title>
    <desc>Created with Sketch.</desc>
    <defs></defs>
    <g id="Full-webdesigns" stroke="none" stroke-width="1" fill="none" fill-rule="evenodd">
        <g id="About-us-V4" transform="translate(-1001.000000, -5979.000000)">
            <g id="awesome-facts" transform="translate(0.000000, 5443.000000)">
                <path d="M0,12.848327 C92.0042654,20.8217623 261.556349,24.8084799 508.65625,24.8084799 C652.239745,24.8084799 817.212557,4.84909091 1003.57469,0.810771819 C1127.8161,-1.88144091 1273.29121,2.13107747 1440,12.848327 L1440,1377 L0,1377 L0,12.848327 Z" id="bg-counters" fill="#F9F9F9"></path>
                <g id="3-dispenso" transform="translate(1001.000000, 516.000000)" fill="#33B2C1">
                    <g id="cornflakes-open-box" transform="translate(0.000000, 20.000000)">
                        <path d="M57.8828402,0.644874542 C57.6908283,0.250263288 57.2941581,0 56.8600829,0 L6.03712927,0 C5.68356373,0 5.35030371,0.166361032 5.13388954,0.449643917 L0.237051328,6.88467628 C-0.0279892385,7.23291576 -0.0746563276,7.7043923 0.116643114,8.09918399 C0.30865503,8.49451699 0.705325287,8.74478027 1.13940046,8.74478027 L10.4391538,8.74478027 L10.4391538,47.8455771 C10.4391538,48.4834147 10.9499982,49 11.5789352,49 L41.5229975,49 C41.534219,49 41.5459748,49 41.5577307,48.9992783 C41.7150094,48.9951283 41.8646291,48.9577782 42.0003555,48.8942651 C42.0003555,48.8942651 42.001068,48.8942651 42.0017805,48.8942651 C42.0017805,48.8935434 42.0017805,48.8935434 42.0023148,48.8935434 C42.1380413,48.8302107 42.2639711,48.737828 42.3704861,48.6187409 C42.3788577,48.608817 42.3872293,48.5990735 42.3956008,48.5891496 L47.2881642,42.7735504 C47.4636111,42.5649676 47.5603295,42.2991869 47.5603295,42.0251062 L47.5603295,8.74478027 L51.9630666,8.74478027 C52.3159196,8.74478027 52.6498921,8.57841924 52.8655938,8.29441462 L57.762432,1.85992355 C58.0281851,1.51114278 58.0748522,1.04020754 57.8828402,0.644874542 Z M11.018752,6.43503237 L3.45779295,6.43503237 L6.59784681,2.30974791 L14.1580934,2.30974791 L11.018752,6.43503237 Z M12.7192508,46.6902521 L40.3833943,46.6902521 L40.3833943,8.74478027 L12.7192508,8.74478027 L12.7192508,46.6902521 Z M40.9629924,6.43503237 L13.8971495,6.43503237 L17.0372034,2.30974791 L44.1023338,2.30974791 L40.9629924,6.43503237 Z M45.280945,41.5994602 L42.6633132,44.7105197 L42.6633132,8.74478027 L45.280945,8.74478027 L45.280945,41.5994602 Z M51.402349,6.43503237 L43.8421025,6.43503237 L46.9814439,2.30974791 L54.5416904,2.30974791 L51.402349,6.43503237 Z M24.2232226,36.6071857 C22.4099747,36.6071857 20.9356865,38.1013676 20.9356865,39.9374738 C20.9356865,41.7741212 22.4099747,43.2677618 24.2232226,43.2677618 C26.0357581,43.2677618 27.5107587,41.7741212 27.5107587,39.9374738 C27.5107587,38.1013676 26.0357581,36.6071857 24.2232226,36.6071857 Z M24.2232226,40.9587356 C23.6673143,40.9587356 23.2157835,40.5006113 23.2157835,39.9374738 C23.2157835,39.3748776 23.6673143,38.9167532 24.2232226,38.9167532 C24.7784185,38.9167532 25.2306618,39.3748776 25.2306618,39.9374738 C25.2306618,40.5006113 24.7784185,40.9587356 24.2232226,40.9587356 Z M24.2232226,26.514015 C26.0357581,26.514015 27.5107587,25.0198331 27.5107587,23.183727 C27.5107587,21.3468991 26.0357581,19.8534389 24.2232226,19.8534389 C22.4099747,19.8534389 20.9356865,21.3468991 20.9356865,23.183727 C20.9356865,25.0198331 22.4099747,26.514015 24.2232226,26.514015 Z M24.2232226,22.1631868 C24.7784185,22.1631868 25.2306618,22.6205895 25.2306618,23.183727 C25.2306618,23.7461427 24.7784185,24.2042671 24.2232226,24.2042671 C23.6673143,24.2042671 23.2157835,23.7461427 23.2157835,23.183727 C23.2157835,22.6205895 23.6673143,22.1631868 24.2232226,22.1631868 Z M25.8791918,31.5606004 C25.8791918,33.3974282 27.3541924,34.8908884 29.1667279,34.8908884 C30.9792634,34.8908884 32.454264,33.3967065 32.454264,31.5606004 C32.454264,29.7244942 30.9792634,28.2303123 29.1667279,28.2303123 C27.3541924,28.2303123 25.8791918,29.7244942 25.8791918,31.5606004 Z M29.1667279,30.5400602 C29.7219238,30.5400602 30.1741671,30.9974629 30.1741671,31.5606004 C30.1741671,32.1237379 29.7219238,32.5811405 29.1667279,32.5811405 C28.6108196,32.5811405 28.1592888,32.1237379 28.1592888,31.5606004 C28.1592888,30.9974629 28.6108196,30.5400602 29.1667279,30.5400602 Z M33.4617032,36.6071857 C31.6493458,36.6071857 30.1741671,38.1013676 30.1741671,39.9374738 C30.1741671,41.7741212 31.6493458,43.2677618 33.4617032,43.2677618 C35.2742387,43.2677618 36.7492393,41.7741212 36.7492393,39.9374738 C36.7492393,38.1013676 35.2742387,36.6071857 33.4617032,36.6071857 Z M33.4617032,40.9587356 C32.9065073,40.9587356 32.454264,40.5006113 32.454264,39.9374738 C32.454264,39.3748776 32.9065073,38.9167532 33.4617032,38.9167532 C34.0176115,38.9167532 34.4693204,39.3748776 34.4693204,39.9374738 C34.4693204,40.5006113 34.0176115,40.9587356 33.4617032,40.9587356 Z M33.4617032,26.514015 C35.2749511,26.514015 36.7492393,25.0198331 36.7492393,23.183727 C36.7492393,21.3468991 35.2742387,19.8534389 33.4617032,19.8534389 C31.6493458,19.8534389 30.1741671,21.3468991 30.1741671,23.183727 C30.1741671,25.0198331 31.6493458,26.514015 33.4617032,26.514015 Z M33.4617032,22.1631868 C34.0176115,22.1631868 34.4693204,22.6205895 34.4693204,23.183727 C34.4693204,23.7461427 34.0176115,24.2042671 33.4617032,24.2042671 C32.9065073,24.2042671 32.454264,23.7461427 32.454264,23.183727 C32.454264,22.6205895 32.9057948,22.1631868 33.4617032,22.1631868 Z M19.9282474,34.8908884 C21.7407828,34.8908884 23.2157835,33.3974282 23.2157835,31.5606004 C23.2157835,29.7244942 21.7407828,28.2303123 19.9282474,28.2303123 C18.1149994,28.2303123 16.6407112,29.7244942 16.6407112,31.5606004 C16.6399988,33.3974282 18.1149994,34.8908884 19.9282474,34.8908884 Z M19.9282474,30.5400602 C20.4834432,30.5400602 20.9356865,30.9974629 20.9356865,31.5606004 C20.9356865,32.1237379 20.4834432,32.5811405 19.9282474,32.5811405 C19.372339,32.5811405 18.9200957,32.1237379 18.9200957,31.5606004 C18.9200957,30.9974629 19.372339,30.5400602 19.9282474,30.5400602 Z" id="Fill-1"></path>
                    </g>
                </g>
            </g>
            <g id="global-awesomeness" transform="translate(-87.000000, 4527.000000)"></g>
        </g>
    </g>
</svg>