<?xml version="1.0" encoding="UTF-8"?>
<svg width="46px" height="46px" viewBox="0 0 46 46" version="1.1" xmlns="http://www.w3.org/2000/svg" xmlns:xlink="http://www.w3.org/1999/xlink">
    <!-- Generator: Sketch 46.2 (44496) - http://www.bohemiancoding.com/sketch -->
    <title>icon-airplane</title>
    <desc>Created with Sketch.</desc>
    <defs></defs>
    <g id="Full-webdesigns" stroke="none" stroke-width="1" fill="none" fill-rule="evenodd">
        <g id="About-us-V4" transform="translate(-576.000000, -6276.000000)">
            <g id="awesome-facts" transform="translate(0.000000, 5443.000000)">
                <path d="M0,12.848327 C92.0042654,20.8217623 261.556349,24.8084799 508.65625,24.8084799 C652.239745,24.8084799 817.212557,4.84909091 1003.57469,0.810771819 C1127.8161,-1.88144091 1273.29121,2.13107747 1440,12.848327 L1440,1377 L0,1377 L0,12.848327 Z" id="bg-counters" fill="#F9F9F9"></path>
                <g id="2-team-holidays" transform="translate(572.000000, 812.000000)" fill="#33B2C1">
                    <g id="airplane" transform="translate(4.000000, 21.000000)">
                        <g id="Group-4">
                            <polyline id="Fill-1" points="5.03180645 23.7578871 6.51577016 23.4284677 6.83739919 24.877004 5.35334274 25.2064234 5.03180645 23.7578871"></polyline>
                            <path d="M44.516129,26.6985484 L28.1935484,23.8599032 L28.1935484,22.4413226 L37.6777097,24.5491613 L37.9997097,23.1001613 L28.1935484,20.9210968 L28.1935484,16.0844194 L44.516129,24.9260645 L44.516129,26.6985484 Z M33.3870968,44.493129 L25.4409677,42.5069677 L26.9240968,38.0568387 L33.3870968,42.6724194 L33.3870968,44.493129 Z M23.207,44.516129 L22.7922581,44.516129 L20.1658065,36.6352903 C19.584871,34.8924839 19.2903226,33.0769677 19.2903226,31.2391935 L19.2903226,8.602 C19.2903226,8.35864516 19.3140645,8.11380645 19.3622903,7.87490323 L20.1784194,3.79796774 C20.4462581,2.45729032 21.6326129,1.48387097 23,1.48387097 C24.3673871,1.48387097 25.5537419,2.45729032 25.8223226,3.79722581 L26.6384516,7.87341935 C26.6859355,8.11380645 26.7096774,8.35864516 26.7096774,8.602 L26.7096774,31.2399355 C26.7096774,33.0777097 26.415129,34.8932258 25.8341935,36.6352903 L23.207,44.516129 Z M12.6129032,44.493129 L12.6129032,42.6724194 L19.0759032,38.0575806 L20.5590323,42.5077097 L12.6129032,44.493129 Z M1.48387097,26.6985484 L1.48387097,24.9253226 L17.8064516,16.0836774 L17.8064516,20.9203548 L8.00029032,23.0994194 L8.32229032,24.5484194 L17.8064516,22.4413226 L17.8064516,23.8599032 L1.48387097,26.6985484 Z M5.93548387,19.2903226 L8.16129032,19.2903226 L8.16129032,19.6212258 L5.93548387,20.826871 L5.93548387,19.2903226 Z M37.8387097,19.2903226 L40.0645161,19.2903226 L40.0645161,20.826871 L37.8387097,19.6212258 L37.8387097,19.2903226 Z M41.5483871,21.6303871 L41.5483871,17.8064516 L36.3548387,17.8064516 L36.3548387,18.8177097 L28.1935484,14.3972581 L28.1935484,8.602 C28.1935484,8.26145161 28.1594194,7.91941935 28.0926452,7.58332258 L27.2765161,3.5063871 C26.8706774,1.47422581 25.0722258,0 23,0 C20.9277742,0 19.1293226,1.47422581 18.7227419,3.5063871 L17.9066129,7.58406452 C17.8405806,7.91941935 17.8064516,8.26145161 17.8064516,8.602 L17.8064516,14.3972581 L9.64516129,18.8177097 L9.64516129,17.8064516 L4.4516129,17.8064516 L4.4516129,21.6303871 L0,24.0416774 L0,28.1935484 L1.54767742,28.1935484 L17.8064516,25.3660323 L17.8064516,31.2399355 C17.8064516,33.0517419 18.0839355,34.8405484 18.6040323,36.5714839 L11.1290323,41.9082258 L11.1290323,46 L12.7041613,46 L21.0294194,43.918129 L21.723129,46 L24.276129,46 L24.9698387,43.918129 L33.2068065,45.9777419 L34.8709677,46 L34.8709677,41.9082258 L27.3959677,36.5707419 C27.9160645,34.8398065 28.1935484,33.0517419 28.1935484,31.2391935 L28.1935484,25.3652903 L44.3892581,28.1816774 L46,28.1935484 L46,24.0416774 L41.5483871,21.6303871 L41.5483871,21.6303871 Z" id="Fill-3"></path>
                        </g>
                        <polyline id="Fill-5" points="39 24.6292047 39.3564092 23 41 23.3708996 40.6434881 25 39 24.6292047"></polyline>
                    </g>
                    <g id="airplane" transform="translate(4.000000, 21.000000)">
                        <g id="Group-4">
                            <polyline id="Fill-1" points="5.03180645 23.7578871 6.51577016 23.4284677 6.83739919 24.877004 5.35334274 25.2064234 5.03180645 23.7578871"></polyline>
                            <path d="M44.516129,26.6985484 L28.1935484,23.8599032 L28.1935484,22.4413226 L37.6777097,24.5491613 L37.9997097,23.1001613 L28.1935484,20.9210968 L28.1935484,16.0844194 L44.516129,24.9260645 L44.516129,26.6985484 Z M33.3870968,44.493129 L25.4409677,42.5069677 L26.9240968,38.0568387 L33.3870968,42.6724194 L33.3870968,44.493129 Z M23.207,44.516129 L22.7922581,44.516129 L20.1658065,36.6352903 C19.584871,34.8924839 19.2903226,33.0769677 19.2903226,31.2391935 L19.2903226,8.602 C19.2903226,8.35864516 19.3140645,8.11380645 19.3622903,7.87490323 L20.1784194,3.79796774 C20.4462581,2.45729032 21.6326129,1.48387097 23,1.48387097 C24.3673871,1.48387097 25.5537419,2.45729032 25.8223226,3.79722581 L26.6384516,7.87341935 C26.6859355,8.11380645 26.7096774,8.35864516 26.7096774,8.602 L26.7096774,31.2399355 C26.7096774,33.0777097 26.415129,34.8932258 25.8341935,36.6352903 L23.207,44.516129 Z M12.6129032,44.493129 L12.6129032,42.6724194 L19.0759032,38.0575806 L20.5590323,42.5077097 L12.6129032,44.493129 Z M1.48387097,26.6985484 L1.48387097,24.9253226 L17.8064516,16.0836774 L17.8064516,20.9203548 L8.00029032,23.0994194 L8.32229032,24.5484194 L17.8064516,22.4413226 L17.8064516,23.8599032 L1.48387097,26.6985484 Z M5.93548387,19.2903226 L8.16129032,19.2903226 L8.16129032,19.6212258 L5.93548387,20.826871 L5.93548387,19.2903226 Z M37.8387097,19.2903226 L40.0645161,19.2903226 L40.0645161,20.826871 L37.8387097,19.6212258 L37.8387097,19.2903226 Z M41.5483871,21.6303871 L41.5483871,17.8064516 L36.3548387,17.8064516 L36.3548387,18.8177097 L28.1935484,14.3972581 L28.1935484,8.602 C28.1935484,8.26145161 28.1594194,7.91941935 28.0926452,7.58332258 L27.2765161,3.5063871 C26.8706774,1.47422581 25.0722258,0 23,0 C20.9277742,0 19.1293226,1.47422581 18.7227419,3.5063871 L17.9066129,7.58406452 C17.8405806,7.91941935 17.8064516,8.26145161 17.8064516,8.602 L17.8064516,14.3972581 L9.64516129,18.8177097 L9.64516129,17.8064516 L4.4516129,17.8064516 L4.4516129,21.6303871 L0,24.0416774 L0,28.1935484 L1.54767742,28.1935484 L17.8064516,25.3660323 L17.8064516,31.2399355 C17.8064516,33.0517419 18.0839355,34.8405484 18.6040323,36.5714839 L11.1290323,41.9082258 L11.1290323,46 L12.7041613,46 L21.0294194,43.918129 L21.723129,46 L24.276129,46 L24.9698387,43.918129 L33.2068065,45.9777419 L34.8709677,46 L34.8709677,41.9082258 L27.3959677,36.5707419 C27.9160645,34.8398065 28.1935484,33.0517419 28.1935484,31.2391935 L28.1935484,25.3652903 L44.3892581,28.1816774 L46,28.1935484 L46,24.0416774 L41.5483871,21.6303871 L41.5483871,21.6303871 Z" id="Fill-3"></path>
                        </g>
                        <polyline id="Fill-5" points="39 24.6292047 39.3564092 23 41 23.3708996 40.6434881 25 39 24.6292047"></polyline>
                    </g>
                </g>
            </g>
        </g>
    </g>
</svg>