<?xml version="1.0" encoding="UTF-8"?>
<svg width="49px" height="44px" viewBox="0 0 49 44" version="1.1" xmlns="http://www.w3.org/2000/svg" xmlns:xlink="http://www.w3.org/1999/xlink">
    <!-- Generator: Sketch 46.2 (44496) - http://www.bohemiancoding.com/sketch -->
    <title>icon-users</title>
    <desc>Created with Sketch.</desc>
    <defs></defs>
    <g id="Full-webdesigns" stroke="none" stroke-width="1" fill="none" fill-rule="evenodd">
        <g id="About-us-V4" transform="translate(-140.000000, -6278.000000)">
            <g id="awesome-facts" transform="translate(0.000000, 5443.000000)">
                <path d="M0,12.848327 C92.0042654,20.8217623 261.556349,24.8084799 508.65625,24.8084799 C652.239745,24.8084799 817.212557,4.84909091 1003.57469,0.810771819 C1127.8161,-1.88144091 1273.29121,2.13107747 1440,12.848327 L1440,1377 L0,1377 L0,12.848327 Z" id="bg-counters" fill="#F9F9F9"></path>
                <g id="379m-followers" transform="translate(140.000000, 813.000000)" fill="#33B2C1">
                    <g id="icon" transform="translate(0.000000, 22.000000)">
                        <path d="M44.414,35.238 L36.594,31.855 C36.41,31.762 36.207,31.535 36.031,31.238 L41.254,31.234 C41.344,31.242 43.496,31.438 45.223,30.695 C45.875,30.414 46.359,29.859 46.555,29.172 C46.754,28.477 46.629,27.742 46.215,27.152 C44.723,25.031 41.242,19.48 41.133,13.855 C41.129,13.758 40.812,4.188 31.363,4.109 C29.973,4.121 28.688,4.359 27.516,4.793 C27.262,4.141 26.887,3.465 26.324,2.824 C24.684,0.949 22.016,0 18.398,0 C14.781,0 12.117,0.949 10.473,2.824 C8.578,4.984 8.754,7.605 8.801,8.043 L8.801,12.301 C8.289,12.883 8,13.629 8,14.398 L8,17.598 C8,18.574 8.441,19.48 9.199,20.086 C9.93,22.988 11.465,25.176 12,25.875 L12,28.523 C12,29.297 11.578,30.008 10.898,30.379 L3.762,34.273 C1.441,35.539 0,37.965 0,40.609 L0,44 L48,44 L48,41.043 C48,38.57 46.625,36.348 44.414,35.238 Z M35.199,42.398 L1.602,42.398 L1.602,40.609 C1.602,38.555 2.723,36.664 4.527,35.68 L11.664,31.785 C12.859,31.133 13.602,29.883 13.602,28.523 L13.602,25.309 L13.414,25.086 C13.395,25.062 11.434,22.691 10.688,19.434 L10.613,19.117 L10.34,18.941 C9.875,18.641 9.602,18.141 9.602,17.602 L9.602,14.398 C9.602,13.953 9.789,13.531 10.137,13.219 L10.398,12.98 L10.398,8 L10.395,7.895 C10.391,7.875 10.117,5.656 11.676,3.879 C13.004,2.367 15.266,1.602 18.398,1.602 C21.523,1.602 23.781,2.359 25.109,3.863 C25.77,4.609 26.102,5.441 26.266,6.156 C26.277,6.211 26.293,6.266 26.301,6.324 C26.312,6.379 26.324,6.438 26.336,6.492 C26.344,6.555 26.355,6.613 26.363,6.672 C26.367,6.715 26.375,6.758 26.379,6.797 C26.391,6.898 26.402,6.992 26.406,7.082 C26.41,7.09 26.41,7.094 26.41,7.102 C26.414,7.188 26.418,7.27 26.422,7.344 C26.422,7.359 26.422,7.371 26.422,7.387 C26.422,7.453 26.422,7.516 26.422,7.57 L26.422,7.594 C26.418,7.781 26.406,7.895 26.406,7.898 L26.398,12.98 L26.664,13.223 C27.008,13.531 27.199,13.953 27.199,14.398 L27.199,17.602 C27.199,18.297 26.742,18.91 26.062,19.121 L25.664,19.242 L25.535,19.637 C25,21.301 24.238,22.84 23.27,24.207 C23.031,24.543 22.801,24.844 22.598,25.07 L22.398,25.297 L22.398,28.598 C22.398,28.801 22.422,29 22.453,29.195 C22.457,29.234 22.469,29.277 22.477,29.316 C22.508,29.477 22.551,29.637 22.602,29.789 C22.613,29.824 22.625,29.859 22.641,29.895 C22.703,30.062 22.773,30.227 22.859,30.379 C22.867,30.398 22.879,30.414 22.887,30.434 C23.004,30.637 23.137,30.832 23.289,31.012 L23.473,31.238 L23.504,31.238 C23.777,31.508 24.094,31.742 24.453,31.922 L32.094,35.742 C34.012,36.699 35.199,38.625 35.199,40.766 L35.199,42.398 Z M46.398,42.398 L36.801,42.398 L36.801,40.766 C36.801,38.016 35.27,35.543 32.812,34.312 L27.324,31.566 C27.461,31.258 27.477,30.906 27.359,30.562 C27.164,30 26.652,29.637 26.055,29.637 L24.281,29.637 C24.246,29.57 24.223,29.5 24.191,29.43 C24.152,29.34 24.105,29.25 24.078,29.152 C24.027,28.973 24,28.789 24,28.598 L24,25.895 C24.184,25.668 24.375,25.414 24.574,25.133 C25.566,23.734 26.359,22.176 26.938,20.492 C28.066,19.977 28.801,18.859 28.801,17.602 L28.801,14.398 C28.801,13.629 28.512,12.883 28,12.301 L28,8.043 C28.02,7.844 28.066,7.191 27.934,6.332 C28.965,5.93 30.117,5.719 31.363,5.711 C39.238,5.773 39.523,13.559 39.531,13.887 C39.652,19.953 43.328,25.828 44.906,28.07 C45.043,28.266 45.082,28.504 45.02,28.734 C44.98,28.863 44.875,29.102 44.59,29.227 C43.246,29.805 41.422,29.641 41.328,29.637 L35.824,29.637 C35.309,29.637 34.84,29.898 34.566,30.336 C34.297,30.77 34.273,31.305 34.5,31.762 C34.75,32.266 35.191,32.941 35.918,33.305 L43.719,36.68 C45.371,37.516 46.398,39.188 46.398,41.043 L46.398,42.398 Z" id="users"></path>
                        <path d="M45.414,35.238 L37.594,31.855 C37.41,31.762 37.207,31.535 37.031,31.238 L42.254,31.234 C42.344,31.242 44.496,31.438 46.223,30.695 C46.875,30.414 47.359,29.859 47.555,29.172 C47.754,28.477 47.629,27.742 47.215,27.152 C45.723,25.031 42.242,19.48 42.133,13.855 C42.129,13.758 41.812,4.188 32.363,4.109 C30.973,4.121 29.688,4.359 28.516,4.793 C28.262,4.141 27.887,3.465 27.324,2.824 C25.684,0.949 23.016,0 19.398,0 C15.781,0 13.117,0.949 11.473,2.824 C9.578,4.984 9.754,7.605 9.801,8.043 L9.801,12.301 C9.289,12.883 9,13.629 9,14.398 L9,17.598 C9,18.574 9.441,19.48 10.199,20.086 C10.93,22.988 12.465,25.176 13,25.875 L13,28.523 C13,29.297 12.578,30.008 11.898,30.379 L4.762,34.273 C2.441,35.539 1,37.965 1,40.609 L1,44 L49,44 L49,41.043 C49,38.57 47.625,36.348 45.414,35.238 Z M36.199,42.398 L2.602,42.398 L2.602,40.609 C2.602,38.555 3.723,36.664 5.527,35.68 L12.664,31.785 C13.859,31.133 14.602,29.883 14.602,28.523 L14.602,25.309 L14.414,25.086 C14.395,25.062 12.434,22.691 11.688,19.434 L11.613,19.117 L11.34,18.941 C10.875,18.641 10.602,18.141 10.602,17.602 L10.602,14.398 C10.602,13.953 10.789,13.531 11.137,13.219 L11.398,12.98 L11.398,8 L11.395,7.895 C11.391,7.875 11.117,5.656 12.676,3.879 C14.004,2.367 16.266,1.602 19.398,1.602 C22.523,1.602 24.781,2.359 26.109,3.863 C26.77,4.609 27.102,5.441 27.266,6.156 C27.277,6.211 27.293,6.266 27.301,6.324 C27.312,6.379 27.324,6.438 27.336,6.492 C27.344,6.555 27.355,6.613 27.363,6.672 C27.367,6.715 27.375,6.758 27.379,6.797 C27.391,6.898 27.402,6.992 27.406,7.082 C27.41,7.09 27.41,7.094 27.41,7.102 C27.414,7.188 27.418,7.27 27.422,7.344 C27.422,7.359 27.422,7.371 27.422,7.387 C27.422,7.453 27.422,7.516 27.422,7.57 L27.422,7.594 C27.418,7.781 27.406,7.895 27.406,7.898 L27.398,12.98 L27.664,13.223 C28.008,13.531 28.199,13.953 28.199,14.398 L28.199,17.602 C28.199,18.297 27.742,18.91 27.062,19.121 L26.664,19.242 L26.535,19.637 C26,21.301 25.238,22.84 24.27,24.207 C24.031,24.543 23.801,24.844 23.598,25.07 L23.398,25.297 L23.398,28.598 C23.398,28.801 23.422,29 23.453,29.195 C23.457,29.234 23.469,29.277 23.477,29.316 C23.508,29.477 23.551,29.637 23.602,29.789 C23.613,29.824 23.625,29.859 23.641,29.895 C23.703,30.062 23.773,30.227 23.859,30.379 C23.867,30.398 23.879,30.414 23.887,30.434 C24.004,30.637 24.137,30.832 24.289,31.012 L24.473,31.238 L24.504,31.238 C24.777,31.508 25.094,31.742 25.453,31.922 L33.094,35.742 C35.012,36.699 36.199,38.625 36.199,40.766 L36.199,42.398 Z M47.398,42.398 L37.801,42.398 L37.801,40.766 C37.801,38.016 36.27,35.543 33.812,34.312 L28.324,31.566 C28.461,31.258 28.477,30.906 28.359,30.562 C28.164,30 27.652,29.637 27.055,29.637 L25.281,29.637 C25.246,29.57 25.223,29.5 25.191,29.43 C25.152,29.34 25.105,29.25 25.078,29.152 C25.027,28.973 25,28.789 25,28.598 L25,25.895 C25.184,25.668 25.375,25.414 25.574,25.133 C26.566,23.734 27.359,22.176 27.938,20.492 C29.066,19.977 29.801,18.859 29.801,17.602 L29.801,14.398 C29.801,13.629 29.512,12.883 29,12.301 L29,8.043 C29.02,7.844 29.066,7.191 28.934,6.332 C29.965,5.93 31.117,5.719 32.363,5.711 C40.238,5.773 40.523,13.559 40.531,13.887 C40.652,19.953 44.328,25.828 45.906,28.07 C46.043,28.266 46.082,28.504 46.02,28.734 C45.98,28.863 45.875,29.102 45.59,29.227 C44.246,29.805 42.422,29.641 42.328,29.637 L36.824,29.637 C36.309,29.637 35.84,29.898 35.566,30.336 C35.297,30.77 35.273,31.305 35.5,31.762 C35.75,32.266 36.191,32.941 36.918,33.305 L44.719,36.68 C46.371,37.516 47.398,39.188 47.398,41.043 L47.398,42.398 Z" id="users"></path>
                    </g>
                </g>
            </g>
        </g>
    </g>
</svg>