<?xml version="1.0" encoding="UTF-8"?>
<svg width="41px" height="49px" viewBox="0 0 41 49" version="1.1" xmlns="http://www.w3.org/2000/svg" xmlns:xlink="http://www.w3.org/1999/xlink">
    <!-- Generator: Sketch 46.2 (44496) - http://www.bohemiancoding.com/sketch -->
    <title>icon-building</title>
    <desc>Created with Sketch.</desc>
    <defs></defs>
    <g id="Full-webdesigns" stroke="none" stroke-width="1" fill="none" fill-rule="evenodd">
        <g id="About-us-V4" transform="translate(-144.000000, -5979.000000)">
            <g id="awesome-facts" transform="translate(0.000000, 5443.000000)">
                <path d="M0,12.848327 C92.0042654,20.8217623 261.556349,24.8084799 508.65625,24.8084799 C652.239745,24.8084799 817.212557,4.84909091 1003.57469,0.810771819 C1127.8161,-1.88144091 1273.29121,2.13107747 1440,12.848327 L1440,1377 L0,1377 L0,12.848327 Z" id="bg-counters" fill="#F9F9F9"></path>
                <g id="86-stairs" transform="translate(143.000000, 517.000000)" fill="#33B2C1">
                    <g id="penthouse" transform="translate(1.000000, 19.000000)">
                        <path d="M17.3993073,18.3033674 L22.6005061,18.3033674 L22.6005061,15.4829652 L17.3993073,15.4829652 L17.3993073,18.3033674 Z M17.3994006,35.5170348 L22.6005994,35.5170348 L22.6005994,32.6966326 L17.3994006,32.6966326 L17.3994006,35.5170348 Z M17.3993073,22.6068337 L22.6005061,22.6068337 L22.6005061,19.7863326 L17.3993073,19.7863326 L17.3993073,22.6068337 Z M17.3994006,26.9102011 L22.6005994,26.9102011 L22.6005994,24.0897989 L17.3994006,24.0897989 L17.3994006,26.9102011 Z M17.3993073,31.2136674 L22.6005061,31.2136674 L22.6005061,28.3931663 L17.3993073,28.3931663 L17.3993073,31.2136674 Z M16.6997003,37 L23.3002997,37 C23.6868141,37 24,36.6680135 24,36.2585174 L24,14.7414826 C24,14.3319865 23.6868141,14 23.3002997,14 L16.6997003,14 C16.3131859,14 16,14.3319865 16,14.7414826 L16,36.2585174 C16,36.6680135 16.3131859,37 16.6997003,37 L16.6997003,37 Z" id="Fill-1"></path>
                        <path d="M6.39938427,43.5455069 L11.6006157,43.5455069 L11.6006157,40.7791579 L6.39938427,40.7791579 L6.39938427,43.5455069 Z M6.39938427,18.2207451 L11.6006157,18.2207451 L11.6006157,15.4544931 L6.39938427,15.4544931 L6.39938427,18.2207451 Z M6.39938427,39.3246648 L11.6006157,39.3246648 L11.6006157,36.5584128 L6.39938427,36.5584128 L6.39938427,39.3246648 Z M6.39938427,22.4415872 L11.6006157,22.4415872 L11.6006157,19.6752383 L6.39938427,19.6752383 L6.39938427,22.4415872 Z M6.39938427,26.6623324 L11.6006157,26.6623324 L11.6006157,23.8960804 L6.39938427,23.8960804 L6.39938427,26.6623324 Z M6.39938427,35.1039196 L11.6006157,35.1039196 L11.6006157,32.3376676 L6.39938427,32.3376676 L6.39938427,35.1039196 Z M6.39938427,30.8831745 L11.6006157,30.8831745 L11.6006157,28.1168255 L6.39938427,28.1168255 L6.39938427,30.8831745 Z M12.3003079,14 L5.69969214,14 C5.31327549,14 5,14.3256125 5,14.7272466 L5,44.2727534 C5,44.6743875 5.31327549,45 5.69969214,45 L12.3003079,45 C12.6868178,45 13,44.6743875 13,44.2727534 L13,14.7272466 C13,14.3256125 12.6868178,14 12.3003079,14 L12.3003079,14 Z" id="Fill-2"></path>
                        <g id="Group-6">
                            <path d="M28.9480117,17.7506328 L34.2887407,17.7506328 L34.2887407,15.0204141 L28.9480117,15.0204141 L28.9480117,17.7506328 Z M28.9480117,42.7455137 L34.2887407,42.7455137 L34.2887407,40.0151992 L28.9480117,40.0151992 L28.9480117,42.7455137 Z M28.9480117,21.9164941 L34.2887407,21.9164941 L34.2887407,19.1861797 L28.9480117,19.1861797 L28.9480117,21.9164941 Z M28.9480117,38.5796523 L34.2887407,38.5796523 L34.2887407,35.8494336 L28.9480117,35.8494336 L28.9480117,38.5796523 Z M28.9480117,34.4138867 L34.2887407,34.4138867 L34.2887407,31.683668 L28.9480117,31.683668 L28.9480117,34.4138867 Z M28.9480117,26.0822598 L34.2887407,26.0822598 L34.2887407,23.352041 L28.9480117,23.352041 L28.9480117,26.0822598 Z M28.9480117,30.2481211 L34.2887407,30.2481211 L34.2887407,27.5178066 L28.9480117,27.5178066 L28.9480117,30.2481211 Z M28.2295537,44.1810605 L35.0071986,44.1810605 C35.4040748,44.1810605 35.7256565,43.8596895 35.7256565,43.4632871 L35.7256565,14.3026406 C35.7256565,13.9062383 35.4040748,13.5848672 35.0071986,13.5848672 L28.2295537,13.5848672 C27.8326776,13.5848672 27.5110958,13.9062383 27.5110958,14.3026406 L27.5110958,43.4632871 C27.5110958,43.8596895 27.8326776,44.1810605 28.2295537,44.1810605 L28.2295537,44.1810605 Z" id="Fill-3"></path>
                            <path d="M21.2172126,6.27668945 L23.3410701,6.27668945 L23.3410701,3.30204492 L21.2172126,3.30204492 L21.2172126,6.27668945 Z M35.4605935,6.27668945 L37.5845467,6.27668945 L37.5845467,3.30204492 L35.4605935,3.30204492 L35.4605935,6.27668945 Z M24.777986,6.27668945 L26.9019393,6.27668945 L26.9019393,3.30204492 L24.777986,3.30204492 L24.777986,6.27668945 Z M28.3388551,6.27668945 L30.4628084,6.27668945 L30.4628084,3.30204492 L28.3388551,3.30204492 L28.3388551,6.27668945 Z M31.8997243,6.27668945 L34.0236776,6.27668945 L34.0236776,3.30204492 L31.8997243,3.30204492 L31.8997243,6.27668945 Z M39.5605935,9.82689258 C39.5605935,9.82689258 14.1508435,9.82689258 14.1222967,9.82689258 C13.1976893,9.82689258 13.194528,11.2624395 14.1222967,11.2624395 L37.5845467,11.2624395 L37.5845467,47.5644531 L25.9677523,47.5644531 L25.9677523,38.7591914 C25.9677523,38.3627891 25.6461706,38.041418 25.2492944,38.041418 L15.7481192,38.041418 C15.351243,38.041418 15.0296612,38.3627891 15.0296612,38.7591914 L15.0296612,47.5644531 L3.41296262,47.5644531 L3.41296262,11.2624395 C3.41296262,11.2624395 11.2378318,11.2624395 11.248465,11.2624395 C12.1719229,11.2624395 12.176521,9.82689258 11.248465,9.82689258 L1.43691589,9.82689258 L1.43691589,7.71223633 L39.5605935,7.71223633 L39.5605935,9.82689258 Z M16.4666729,47.5644531 L24.5309322,47.5644531 L24.5309322,39.4769648 L16.4666729,39.4769648 L16.4666729,47.5644531 Z M6.70876869,6.27668945 L12.0494977,6.27668945 L12.0494977,3.9964668 L6.70876869,3.9964668 L6.70876869,6.27668945 Z M3.41296262,1.43554687 L19.7802967,1.43554687 L19.7802967,6.27668945 L13.4865093,6.27668945 L13.4865093,3.27869336 C13.4865093,2.88229102 13.1649276,2.56091992 12.7680514,2.56091992 L5.99040654,2.56091992 C5.59362617,2.56091992 5.2719486,2.88229102 5.2719486,3.27869336 L5.2719486,6.27678516 L3.41296262,6.27678516 L3.41296262,1.43554687 Z M20.4987547,0 L2.69450467,0 C2.2977243,0 1.97604673,0.321371094 1.97604673,0.717773437 L1.97604673,6.27668945 L0.718457944,6.27668945 C0.32167757,6.27668945 0,6.59806055 0,6.99446289 L0,10.5445703 C0,10.9409727 0.32167757,11.2623437 0.718457944,11.2623437 L1.97595093,11.2623437 L1.97595093,48.2822266 C1.97595093,48.6786289 2.2976285,49 2.69440888,49 L38.3029089,49 C38.699785,49 39.0213668,48.6786289 39.0213668,48.2822266 L39.0213668,11.2624395 L40.2789556,11.2624395 C40.6758318,11.2624395 40.9974136,10.9410684 40.9974136,10.544666 L40.9974136,6.99446289 C40.9974136,6.59806055 40.6758318,6.27668945 40.2789556,6.27668945 L39.0213668,6.27668945 L39.0213668,3.30204492 C39.0213668,3.30204492 40.2760818,3.30204492 40.2789556,3.30204492 C41.204521,3.30204492 41.2066285,1.86649805 40.2789556,1.86649805 L21.2172126,1.86649805 L21.2172126,0.717773437 C21.2172126,0.321371094 20.895535,0 20.4987547,0 L20.4987547,0 Z" id="Fill-5"></path>
                        </g>
                    </g>
                </g>
            </g>
            <g id="global-awesomeness" transform="translate(-87.000000, 4527.000000)"></g>
        </g>
    </g>
</svg>