<?xml version="1.0" encoding="UTF-8"?>
<svg width="45px" height="45px" viewBox="0 0 45 45" version="1.1" xmlns="http://www.w3.org/2000/svg" xmlns:xlink="http://www.w3.org/1999/xlink">
    <!-- Generator: Sketch 46.2 (44496) - http://www.bohemiancoding.com/sketch -->
    <title>icon-waffle</title>
    <desc>Created with Sketch.</desc>
    <defs></defs>
    <g id="Full-webdesigns" stroke="none" stroke-width="1" fill="none" fill-rule="evenodd">
        <g id="About-us-V4" transform="translate(-1007.000000, -6276.000000)">
            <g id="awesome-facts" transform="translate(0.000000, 5443.000000)">
                <path d="M0,12.848327 C92.0042654,20.8217623 261.556349,24.8084799 508.65625,24.8084799 C652.239745,24.8084799 817.212557,4.84909091 1003.57469,0.810771819 C1127.8161,-1.88144091 1273.29121,2.13107747 1440,12.848327 L1440,1377 L0,1377 L0,12.848327 Z" id="bg-counters" fill="#F9F9F9"></path>
                <g id="52-waffles" transform="translate(1002.000000, 812.000000)" fill="#33B2C1">
                    <g id="waffle" transform="translate(5.000000, 21.000000)">
                        <path d="M23.0000635,3 C11.9721856,3 3,11.9721856 3,23.0000635 C3,34.0279413 11.9721856,43 23.0000635,43 C34.0278144,43 43,34.0279413 43,23.0000635 C43,11.9721856 34.0278144,3 23.0000635,3 Z M23.0000635,41.5779611 C12.7560016,41.5779611 4.42153114,33.2439984 4.42153114,23.0000635 C4.42153114,12.7561285 12.7560016,4.42153114 23.0000635,4.42153114 C33.2439984,4.42153114 41.5779611,12.7561285 41.5779611,23.0000635 C41.5779611,33.2439984 33.2439984,41.5779611 23.0000635,41.5779611 Z" id="Fill-1"></path>
                        <path d="M38.4101135,6.59001333 C34.1600296,2.34043662 28.5100703,0 22.5000634,0 C16.4899297,0 10.8399704,2.34043662 6.58988655,6.59001333 C2.34043662,10.8399704 0,16.4900564 0,22.5000634 C0,28.5100703 2.34043662,34.1600296 6.58988655,38.4101135 C10.8399704,42.6595634 16.4899297,45 22.5000634,45 C28.5100703,45 34.1600296,42.6595634 38.4096063,38.4101135 C42.6595634,34.1600296 45,28.5100703 45,22.5000634 C45,16.4900564 42.6595634,10.8399704 38.4101135,6.59001333 Z M22.5000634,43.5802205 C10.876609,43.5802205 1.41977952,34.123391 1.41977952,22.5000634 C1.41977952,10.876609 10.876609,1.41977952 22.5000634,1.41977952 C34.123391,1.41977952 43.5802205,10.8761019 43.5802205,22.5000634 C43.5802205,34.123391 34.123391,43.5802205 22.5000634,43.5802205 Z" id="Fill-2"></path>
                        <path d="M22.0023325,15.7937146 C22.1397241,15.9312382 22.3199799,16 22.5002357,16 C22.6803658,16 22.8606216,15.9312382 22.9981389,15.7937146 L26.7941954,11.9979887 C27.0686015,11.7229415 27.0686015,11.2771842 26.7941954,11.002137 L22.9981389,7.20590823 C22.7231043,6.93136392 22.2772414,6.93136392 22.0023325,7.20590823 L18.2061503,11.002137 C18.0741638,11.1342552 18,11.3135135 18,11.5000629 C18,11.6866122 18.0741638,11.8658705 18.2061503,11.9979887 L22.0023325,15.7937146 Z M22.5002357,8.6991829 L25.3004857,11.5000629 L22.5002357,14.30044 L19.6993572,11.5000629 L22.5002357,8.6991829 Z" id="Fill-3"></path>
                        <path d="M24.2062738,17.9979468 L28.0022905,21.7938382 C28.1398064,21.9312375 28.3199346,22 28.5001886,22 C28.6804425,22 28.8605707,21.9312375 28.9980866,21.7938382 L32.7941033,17.9979468 C33.0686322,17.7230224 33.0686322,17.2771347 32.7941033,17.0020847 L28.9980866,13.2058161 C28.7230548,12.9313946 28.2773223,12.9313946 28.0022905,13.2058161 L24.2062738,17.0020847 C23.9312421,17.2771347 23.9312421,17.7230224 24.2062738,17.9979468 Z M28.5001886,14.6991064 L31.3004092,17.5000157 L28.5001886,20.3005479 L25.6994651,17.5000157 L28.5001886,14.6991064 Z" id="Fill-4"></path>
                        <path d="M33.9976116,18.2059082 C33.7226988,17.9313639 33.2768298,17.9313639 33.0017913,18.2059082 L29.2061846,22.002137 C28.9312718,22.2770585 28.9312718,22.7224387 29.2061846,22.9974859 L33.0017913,26.7937146 C33.1339053,26.9258328 33.313158,27 33.4997015,27 C33.6863706,27 33.8656233,26.9258328 33.9976116,26.7937146 L37.7938468,22.9974859 C37.9258351,22.8658705 38,22.6866122 38,22.5000629 C38,22.3133878 37.9258351,22.1342552 37.7938468,22.002137 L33.9976116,18.2059082 Z M33.4997015,25.30044 L30.6989095,22.5000629 L33.4997015,19.6991829 L36.3006191,22.5000629 L33.4997015,25.30044 Z" id="Fill-5"></path>
                        <path d="M40.819642,19.4778857 C40.78091,19.2106594 40.5909016,18.9880977 40.328124,18.9024483 C40.0652159,18.8171795 39.7758345,18.883542 39.5796968,19.0738741 L39.2511922,19.393632 L36.3459021,16.5668197 L38.6673434,14.3082121 C38.8955622,14.086158 38.9465528,13.7445753 38.7937114,13.4684669 C38.4009143,12.7606853 37.9556921,12.0721906 37.4697817,11.4223968 C37.344457,11.254397 37.1493626,11.1483186 36.9364019,11.1319501 C36.7234412,11.1155815 36.5141319,11.1914606 36.3627251,11.3381432 L33.6673963,13.9606657 L30.7617149,11.1339803 L33.4575654,8.51145773 C33.6083202,8.36426758 33.6857842,8.16048535 33.6689612,7.95340402 C33.6521382,7.74619581 33.5431148,7.55687882 33.370451,7.43443184 C32.7015744,6.96050491 31.9939659,6.52730906 31.2680998,6.14613731 C30.9838044,5.9974245 30.6328691,6.04754528 30.405172,6.26909185 L28.0837307,8.52782629 L25.1780494,5.70114087 L25.5060324,5.38189049 C25.7016485,5.1915584 25.7699837,4.90948623 25.681826,4.65380678 C25.59419,4.39850799 25.364928,4.21312452 25.090935,4.17594632 C23.3654708,3.94056896 21.6094904,3.94247228 19.9081521,4.17493122 C19.6340287,4.21261697 19.4047667,4.39749288 19.3171307,4.65329922 C19.2291034,4.90847112 19.2973083,5.19054329 19.4929243,5.38138294 L19.8215594,5.70063331 L16.9162693,8.52782629 L14.5953496,6.2695994 C14.3671309,6.04754528 14.0161956,5.99793205 13.7324219,6.14664486 C13.0060341,6.52781661 12.2984256,6.96101247 11.629549,7.43443184 C11.4568852,7.55687882 11.3478618,7.74619581 11.3310388,7.95340402 C11.3142158,8.16048535 11.3916798,8.36477513 11.5429562,8.51145773 L14.2377634,11.1339803 L11.3326037,13.9606657 L8.63727491,11.3386507 C8.48652011,11.1914606 8.27603721,11.116089 8.06359814,11.1324576 C7.85076784,11.1488262 7.65606463,11.2549046 7.53034869,11.4229044 C7.04378628,12.0737133 6.59856407,12.7622079 6.20681026,13.4684669 C6.05344725,13.7450829 6.10495948,14.0865387 6.33317825,14.3085928 L8.65409789,16.5668197 L5.7488078,19.393632 L5.42030319,19.0738741 C5.22416546,18.883542 4.93426242,18.8171795 4.67200646,18.9024483 C4.40909844,18.9880977 4.21909002,19.2106594 4.18035803,19.4778857 C4.06064099,20.3086218 4,21.1566148 4,21.999786 C4,22.8423227 4.06064099,23.6909501 4.18035803,24.5216863 C4.21909002,24.7882781 4.40962008,25.0113473 4.67200646,25.0966161 C4.93426242,25.1823924 5.22416546,25.1159031 5.42030319,24.9250634 L5.7488078,24.6054324 L8.65409789,27.4326254 L6.33317825,29.6908523 C6.10495948,29.9129064 6.05344725,30.2543622 6.20681026,30.5304706 C6.59856407,31.237364 7.04430792,31.9257317 7.53034869,32.5760331 C7.65606463,32.7441598 7.85076784,32.8501113 8.06359814,32.8664799 C8.27655885,32.883356 8.48652011,32.8076038 8.63727491,32.6607943 L11.3320821,30.0382718 L14.2377634,32.8655916 L11.5429562,35.4881142 C11.3916798,35.6347968 11.3142158,35.8384521 11.3310388,36.0456603 C11.3478618,36.2528685 11.4568852,36.4426931 11.629549,36.5651401 C12.2979039,37.037925 13.0055125,37.4711209 13.7324219,37.8528002 C14.0167172,38.0020205 14.3671309,37.9520266 14.5953496,37.7299725 L16.9162693,35.4717456 L19.8215594,38.298431 L19.493446,38.618189 C19.2973083,38.8089017 19.2291034,39.0904663 19.3171307,39.3462727 C19.4047667,39.6019521 19.6340287,39.7868281 19.9081521,39.8245138 C20.7618207,39.940997 21.6340076,40 22.5000652,40 C23.3598631,40 24.23205,39.9404895 25.090935,39.8236256 C25.3654496,39.7859398 25.59419,39.6010639 25.6823477,39.3452576 C25.7699837,39.0894512 25.7016485,38.8080135 25.5060324,38.6171739 L25.1785711,38.298431 L28.0837307,35.4712381 L30.405172,37.7299725 C30.6333908,37.9520266 30.984326,38.0020205 31.2680998,37.8528002 C31.9934442,37.472136 32.7010528,37.0389401 33.370451,36.5651401 C33.5431148,36.4426931 33.6526599,36.2533761 33.6689612,36.0461679 C33.6857842,35.8389597 33.6083202,35.6347968 33.4575654,35.4881142 L30.7622366,32.8655916 L33.6673963,30.0382718 L36.3627251,32.6613019 C36.5141319,32.8079845 36.7234412,32.8838635 36.9364019,32.8669874 C37.1493626,32.8511264 37.344457,32.745048 37.4703034,32.5770482 C37.9562137,31.9262393 38.4014359,31.2382522 38.7937114,30.5309781 C38.9470744,30.2543622 38.8955622,29.9134139 38.6673434,29.6913598 L36.3459021,27.4326254 L39.2511922,24.6054324 L39.5796968,24.925571 C39.7758345,25.1159031 40.0652159,25.1823924 40.328124,25.0966161 C40.5909016,25.0113473 40.78091,24.7882781 40.819642,24.5216863 C40.939359,23.6904425 41,22.8418152 41,21.999786 C41,21.1571223 40.939359,20.3091294 40.819642,19.4778857 Z M39.5125353,22.9369812 C39.2517138,22.8399118 38.9449878,22.8939662 38.7346353,23.098129 L34.7968835,26.9300217 C34.5115449,27.2076528 34.5115449,27.6577248 34.7968835,27.935229 L37.2435191,30.3159029 C37.0943292,30.5652379 36.938358,30.8115276 36.7758663,31.0533763 L34.1839531,28.5309684 C33.8987449,28.2539718 33.436178,28.2539718 33.1508394,28.5309684 L29.2130876,32.362988 C29.0760259,32.4962205 28.9990836,32.6771629 28.9990836,32.8655916 C28.9990836,33.0538935 29.0760259,33.2348359 29.2130876,33.3681953 L31.8050007,35.8900956 C31.5564379,36.0481981 31.3031803,36.1998293 31.0470536,36.3446086 L28.6002876,33.9639347 C28.3149489,33.6868112 27.8525125,33.6868112 27.5671739,33.9639347 L23.6294221,37.7958274 C23.4189392,38.0004979 23.3640362,38.298431 23.4632788,38.5522072 C22.8183978,38.5878627 22.1775595,38.5873552 21.5367212,38.5527147 C21.6364854,38.2989386 21.5810608,38.0004979 21.3710996,37.7958274 L17.4328261,33.9639347 C17.1476179,33.6868112 16.6850511,33.6868112 16.3997124,33.9639347 L13.953468,36.3446086 C13.6973414,36.1993218 13.4440838,36.0476905 13.1955209,35.889588 L15.787434,33.3681953 C16.0726423,33.0905642 16.0726423,32.6404922 15.787434,32.362988 L11.8491606,28.5309684 C11.563822,28.2539718 11.1012551,28.2539718 10.8165685,28.5309684 L8.22465538,31.0528687 C8.06216362,30.8110201 7.90619239,30.5647304 7.75752417,30.3153953 L10.2037685,27.935229 C10.4889768,27.6577248 10.4889768,27.2076528 10.2037685,26.9300217 L6.26536467,23.098129 C6.05501218,22.8939662 5.74828616,22.8399118 5.48798635,22.9369812 C5.46972885,22.6248366 5.46099133,22.3115499 5.46099133,21.999786 C5.46099133,21.6875144 5.46972885,21.3747353 5.48798635,21.0624638 C5.7488078,21.1596601 6.05501218,21.1056058 6.26536467,20.9014429 L10.2037685,17.0694233 C10.4889768,16.7919191 10.4889768,16.3418471 10.2037685,16.064216 L7.75752417,13.6841766 C7.90619239,13.4348416 8.06216362,13.1884249 8.22465538,12.9465763 L10.8165685,15.4684766 C10.9531085,15.6018359 11.1389438,15.6761923 11.3326037,15.6761923 C11.5266549,15.6761923 11.7120989,15.6018359 11.8491606,15.4684766 L15.787434,11.6365839 C16.0726423,11.3589528 16.0726423,10.9090077 15.787434,10.6318842 L13.1955209,8.1099839 C13.4440838,7.95188137 13.6973414,7.79974258 13.953468,7.65496329 L16.3997124,10.0351296 C16.6850511,10.3126338 17.1476179,10.3126338 17.4328261,10.0351296 L21.3705779,6.2036176 C21.5810608,5.99894715 21.6364854,5.70063331 21.5367212,5.44685718 C22.1775595,5.41208985 22.8183978,5.4115823 23.4627572,5.44736474 C23.3635146,5.70114087 23.4189392,5.99894715 23.6289004,6.2036176 L27.5671739,10.0351296 C27.8525125,10.3126338 28.3149489,10.3126338 28.599766,10.0351296 L31.046532,7.65445574 C31.302789,7.79974258 31.5559162,7.95137381 31.8050007,8.10947634 L29.212566,10.6313766 C29.0755043,10.764736 28.9986924,10.9456784 28.9986924,11.1339803 C28.9986924,11.3222822 29.0755043,11.5032245 29.212566,11.6365839 L33.1508394,15.467969 C33.436178,15.7456001 33.8982232,15.7456001 34.1834315,15.467969 L36.7758663,12.9460687 C36.938358,13.1879174 37.0943292,13.434334 37.2435191,13.683669 L34.7963619,16.064216 C34.5110232,16.3418471 34.5110232,16.7919191 34.7963619,17.0694233 L38.7346353,20.9009353 C38.9449878,21.1056058 39.2517138,21.1591525 39.5120136,21.0624638 C39.5302711,21.3747353 39.5390087,21.6875144 39.5390087,21.999786 C39.5390087,22.3115499 39.5302711,22.6248366 39.5125353,22.9369812 Z" id="Fill-6"></path>
                        <path d="M17.0020113,21.7938382 C17.1395349,21.9312375 17.3197989,22 17.4999371,22 C17.6802011,22 17.8603394,21.9312375 17.997863,21.7938382 L21.7940918,17.9979468 C22.0686361,17.7230224 22.0686361,17.2771347 21.7940918,17.0020847 L17.997863,13.2058161 C17.7229415,12.9313946 17.2770585,12.9313946 17.0020113,13.2058161 L13.2062854,17.0020847 C12.9312382,17.2771347 12.9312382,17.7230224 13.2062854,17.9979468 L17.0020113,21.7938382 Z M17.4999371,14.6991064 L20.30044,17.5000157 L17.4999371,20.3005479 L14.6990572,17.5000157 L17.4999371,14.6991064 Z" id="Fill-7"></path>
                        <path d="M22.0023325,18.2059082 L18.2061503,22.002137 C18.0741638,22.1342552 18,22.3133878 18,22.5000629 C18,22.6866122 18.0741638,22.8658705 18.2061503,22.9974859 L22.0023325,26.7937146 C22.1343189,26.9258328 22.3135691,27 22.5002357,27 C22.6867766,27 22.8660268,26.9258328 22.9981389,26.7937146 L26.7941954,22.9974859 C27.0686015,22.7224387 27.0686015,22.2770585 26.7941954,22.002137 L22.9981389,18.2059082 C22.7231043,17.9313639 22.2772414,17.9313639 22.0023325,18.2059082 Z M22.5002357,25.30044 L19.6993572,22.5000629 L22.5002357,19.6991829 L25.3004857,22.5000629 L22.5002357,25.30044 Z" id="Fill-8"></path>
                        <path d="M28.9979189,24.2059082 C28.7228756,23.9313639 28.2771244,23.9313639 28.0020811,24.2059082 L24.2059054,28.002137 C23.9313649,28.2771842 23.9313649,28.7230673 24.2059054,28.9979887 L28.0020811,32.7942175 C28.1396028,32.9312382 28.3197385,33 28.5,33 C28.6802615,33 28.8603972,32.9312382 28.9979189,32.7942175 L32.7940946,28.9979887 C33.0686351,28.7230673 33.0686351,28.2771842 32.7940946,28.002137 L28.9979189,24.2059082 Z M28.5,31.3005657 L25.6991592,28.5000629 L28.5,25.6991829 L31.300338,28.5000629 L28.5,31.3005657 Z" id="Fill-9"></path>
                        <path d="M16.7937233,22.002137 L12.9976536,18.2059082 C12.7231208,17.9313639 12.2772563,17.9313639 12.0023464,18.2059082 L8.20627671,22.002137 C7.9312411,22.2770585 7.9312411,22.7229415 8.20627671,22.9974859 L12.0023464,26.7937146 C12.1344591,26.9258328 12.3135842,27 12.5002514,27 C12.6867929,27 12.8660437,26.9263356 12.9981564,26.7937146 L16.7937233,22.9974859 C17.0687589,22.7229415 17.0687589,22.2770585 16.7937233,22.002137 Z M12.5002514,25.30044 L9.69936311,22.5000629 L12.5002514,19.6991829 L15.3005112,22.5000629 L12.5002514,25.30044 Z" id="Fill-10"></path>
                        <path d="M21.7936618,28.002137 L17.9981214,24.2059082 C17.7232135,23.9313639 17.2773522,23.9313639 17.0023185,24.2059082 L13.2062753,28.002137 C12.9312416,28.2771842 12.9312416,28.7230673 13.2062753,28.9979887 L17.0023185,32.7942175 C17.1398353,32.9312382 17.3200905,33 17.50022,33 C17.6804751,33 17.8606046,32.9312382 17.9981214,32.7942175 L21.7941646,28.9979887 C22.0686955,28.7230673 22.0686955,28.2771842 21.7936618,28.002137 Z M17.50022,31.3005657 L14.6994769,28.5000629 L17.50022,25.6991829 L20.3005859,28.5000629 L17.50022,31.3005657 Z" id="Fill-11"></path>
                        <path d="M22.9981389,29.2058161 C22.7231043,28.9313946 22.2772414,28.9313946 22.0023325,29.2058161 L18.2061503,33.0022104 C18.0741638,33.1342042 18,33.3134644 18,33.5001414 C18,33.6866927 18.0741638,33.8659529 18.2061503,33.9980725 L22.0023325,37.7938382 C22.1397241,37.9313632 22.3199799,38 22.5002357,38 C22.6803658,38 22.8606216,37.9313632 22.9981389,37.7938382 L26.7941954,33.9980725 C27.0686015,33.7230224 27.0686015,33.2771347 26.7941954,33.0022104 L22.9981389,29.2058161 Z M22.5002357,36.3005479 L19.6993572,33.5001414 L22.5002357,30.6991064 L25.3004857,33.5001414 L22.5002357,36.3005479 Z" id="Fill-12"></path>
                    </g>
                </g>
            </g>
        </g>
    </g>
</svg>